<svg width="1024" height="753" viewBox="0 0 1024 753" fill="none" xmlns="http://www.w3.org/2000/svg">
<g clip-path="url(#clip0_122_130)">
<rect width="1024" height="753" fill="#121214"/>
<g opacity="0.2" filter="url(#filter0_f_122_130)">
<ellipse cx="603.5" cy="30" rx="670.5" ry="350" fill="#B3A659"/>
</g>
<path d="M124.035 266C125.53 266 126.662 266.63 127.431 267.891C128.213 269.138 128.605 270.953 128.605 273.336C128.605 275.719 128.213 277.541 127.431 278.802C126.662 280.063 125.53 280.693 124.035 280.693C122.554 280.693 121.422 280.063 120.639 278.802C119.856 277.541 119.465 275.719 119.465 273.336C119.465 270.967 119.856 269.152 120.639 267.891C121.422 266.63 122.554 266 124.035 266ZM120.953 273.336C120.953 275.026 121.107 276.35 121.415 277.306L126.068 268.099C125.579 267.448 124.901 267.122 124.035 267.122C123.071 267.122 122.316 267.635 121.771 268.66C121.226 269.672 120.953 271.23 120.953 273.336ZM124.035 279.55C125.013 279.55 125.775 279.044 126.32 278.033C126.865 277.008 127.137 275.442 127.137 273.336C127.137 271.549 126.963 270.163 126.613 269.18L121.96 278.469C122.463 279.19 123.154 279.55 124.035 279.55Z" fill="url(#paint0_linear_122_130)" fill-opacity="0.6"/>
<path d="M125.293 303.135H128.374V304.236H120.387V303.135H123.951V291.455L120.555 293.471L119.968 292.536L124.161 289.959H125.293V303.135Z" fill="url(#paint1_linear_122_130)" fill-opacity="0.6"/>
<path d="M124.035 313.502C125.53 313.502 126.662 314.133 127.431 315.393C128.213 316.64 128.605 318.455 128.605 320.838C128.605 323.221 128.213 325.043 127.431 326.304C126.662 327.565 125.53 328.195 124.035 328.195C122.554 328.195 121.422 327.565 120.639 326.304C119.856 325.043 119.465 323.221 119.465 320.838C119.465 318.469 119.856 316.654 120.639 315.393C121.422 314.133 122.554 313.502 124.035 313.502ZM120.953 320.838C120.953 322.529 121.107 323.852 121.415 324.808L126.068 315.601C125.579 314.95 124.901 314.624 124.035 314.624C123.071 314.624 122.316 315.137 121.771 316.162C121.226 317.174 120.953 318.732 120.953 320.838ZM124.035 327.052C125.013 327.052 125.775 326.546 126.32 325.535C126.865 324.51 127.137 322.944 127.137 320.838C127.137 319.051 126.963 317.665 126.613 316.682L121.96 325.971C122.463 326.692 123.154 327.052 124.035 327.052Z" fill="url(#paint2_linear_122_130)" fill-opacity="0.6"/>
<path d="M125.293 350.637H128.374V351.738H120.387V350.637H123.951V338.957L120.555 340.973L119.968 340.038L124.161 337.461H125.293V350.637Z" fill="url(#paint3_linear_122_130)" fill-opacity="0.6"/>
<path d="M125.293 374.388H128.374V375.489H120.387V374.388H123.951V362.708L120.555 364.724L119.968 363.789L124.161 361.212H125.293V374.388Z" fill="url(#paint4_linear_122_130)" fill-opacity="0.6"/>
<path d="M124.035 384.755C125.53 384.755 126.662 385.386 127.431 386.646C128.213 387.893 128.605 389.708 128.605 392.091C128.605 394.474 128.213 396.296 127.431 397.557C126.662 398.818 125.53 399.448 124.035 399.448C122.554 399.448 121.422 398.818 120.639 397.557C119.856 396.296 119.465 394.474 119.465 392.091C119.465 389.722 119.856 387.907 120.639 386.646C121.422 385.386 122.554 384.755 124.035 384.755ZM120.953 392.091C120.953 393.782 121.107 395.105 121.415 396.061L126.068 386.854C125.579 386.203 124.901 385.878 124.035 385.878C123.071 385.878 122.316 386.39 121.771 387.415C121.226 388.427 120.953 389.985 120.953 392.091ZM124.035 398.305C125.013 398.305 125.775 397.8 126.32 396.788C126.865 395.763 127.137 394.197 127.137 392.091C127.137 390.304 126.963 388.919 126.613 387.935L121.96 397.225C122.463 397.945 123.154 398.305 124.035 398.305Z" fill="url(#paint5_linear_122_130)" fill-opacity="0.6"/>
<path d="M125.293 421.89H128.374V422.992H120.387V421.89H123.951V410.21L120.555 412.226L119.968 411.291L124.161 408.714H125.293V421.89Z" fill="url(#paint6_linear_122_130)" fill-opacity="0.6"/>
<path d="M124.035 432.257C125.53 432.257 126.662 432.888 127.431 434.149C128.213 435.396 128.605 437.211 128.605 439.594C128.605 441.977 128.213 443.798 127.431 445.059C126.662 446.32 125.53 446.95 124.035 446.95C122.554 446.95 121.422 446.32 120.639 445.059C119.856 443.798 119.465 441.977 119.465 439.594C119.465 437.224 119.856 435.409 120.639 434.149C121.422 432.888 122.554 432.257 124.035 432.257ZM120.953 439.594C120.953 441.284 121.107 442.607 121.415 443.563L126.068 434.356C125.579 433.705 124.901 433.38 124.035 433.38C123.071 433.38 122.316 433.892 121.771 434.918C121.226 435.929 120.953 437.488 120.953 439.594ZM124.035 445.807C125.013 445.807 125.775 445.302 126.32 444.29C126.865 443.265 127.137 441.699 127.137 439.594C127.137 437.806 126.963 436.421 126.613 435.437L121.96 444.727C122.463 445.447 123.154 445.807 124.035 445.807Z" fill="url(#paint7_linear_122_130)" fill-opacity="0.6"/>
<path d="M124.035 456.008C125.53 456.008 126.662 456.639 127.431 457.9C128.213 459.147 128.605 460.962 128.605 463.345C128.605 465.728 128.213 467.549 127.431 468.81C126.662 470.071 125.53 470.701 124.035 470.701C122.554 470.701 121.422 470.071 120.639 468.81C119.856 467.549 119.465 465.728 119.465 463.345C119.465 460.975 119.856 459.16 120.639 457.9C121.422 456.639 122.554 456.008 124.035 456.008ZM120.953 463.345C120.953 465.035 121.107 466.358 121.415 467.314L126.068 458.107C125.579 457.456 124.901 457.131 124.035 457.131C123.071 457.131 122.316 457.643 121.771 458.669C121.226 459.68 120.953 461.239 120.953 463.345ZM124.035 469.558C125.013 469.558 125.775 469.053 126.32 468.041C126.865 467.016 127.137 465.451 127.137 463.345C127.137 461.557 126.963 460.172 126.613 459.188L121.96 468.478C122.463 469.198 123.154 469.558 124.035 469.558Z" fill="url(#paint8_linear_122_130)" fill-opacity="0.6"/>
<path d="M125.293 493.143H128.374V494.245H120.387V493.143H123.951V481.464L120.555 483.48L119.968 482.544L124.161 479.967H125.293V493.143Z" fill="url(#paint9_linear_122_130)" fill-opacity="0.6"/>
<path d="M124.035 503.511C125.53 503.511 126.662 504.141 127.431 505.402C128.213 506.649 128.605 508.464 128.605 510.847C128.605 513.23 128.213 515.052 127.431 516.312C126.662 517.573 125.53 518.204 124.035 518.204C122.554 518.204 121.422 517.573 120.639 516.312C119.856 515.052 119.465 513.23 119.465 510.847C119.465 508.478 119.856 506.663 120.639 505.402C121.422 504.141 122.554 503.511 124.035 503.511ZM120.953 510.847C120.953 512.537 121.107 513.86 121.415 514.816L126.068 505.61C125.579 504.958 124.901 504.633 124.035 504.633C123.071 504.633 122.316 505.145 121.771 506.171C121.226 507.182 120.953 508.741 120.953 510.847ZM124.035 517.061C125.013 517.061 125.775 516.555 126.32 515.543C126.865 514.518 127.137 512.953 127.137 510.847C127.137 509.059 126.963 507.674 126.613 506.69L121.96 515.98C122.463 516.7 123.154 517.061 124.035 517.061Z" fill="url(#paint10_linear_122_130)" fill-opacity="0.6"/>
<path d="M125.293 540.645H128.374V541.747H120.387V540.645H123.951V528.966L120.555 530.982L119.968 530.046L124.161 527.469H125.293V540.645Z" fill="url(#paint11_linear_122_130)" fill-opacity="0.6"/>
<path d="M125.293 564.396H128.374V565.498H120.387V564.396H123.951V552.717L120.555 554.733L119.968 553.798L124.161 551.221H125.293V564.396Z" fill="url(#paint12_linear_122_130)" fill-opacity="0.6"/>
<path d="M162.965 313.502C164.46 313.502 165.592 314.133 166.361 315.393C167.144 316.64 167.535 318.455 167.535 320.838C167.535 323.221 167.144 325.043 166.361 326.304C165.592 327.565 164.46 328.195 162.965 328.195C161.484 328.195 160.352 327.565 159.569 326.304C158.787 325.043 158.395 323.221 158.395 320.838C158.395 318.469 158.787 316.654 159.569 315.393C160.352 314.133 161.484 313.502 162.965 313.502ZM159.884 320.838C159.884 322.529 160.037 323.852 160.345 324.808L164.998 315.601C164.509 314.95 163.832 314.624 162.965 314.624C162.001 314.624 161.246 315.137 160.701 316.162C160.156 317.174 159.884 318.732 159.884 320.838ZM162.965 327.052C163.943 327.052 164.705 326.546 165.25 325.535C165.795 324.51 166.068 322.944 166.068 320.838C166.068 319.051 165.893 317.665 165.543 316.682L160.89 325.971C161.393 326.692 162.085 327.052 162.965 327.052Z" fill="url(#paint13_linear_122_130)" fill-opacity="0.6"/>
<path d="M164.223 350.637H167.304V351.738H159.318V350.637H162.881V338.957L159.485 340.973L158.898 340.038L163.091 337.461H164.223V350.637Z" fill="url(#paint14_linear_122_130)" fill-opacity="0.6"/>
<path d="M162.965 361.004C164.46 361.004 165.592 361.635 166.361 362.895C167.144 364.142 167.535 365.957 167.535 368.34C167.535 370.723 167.144 372.545 166.361 373.806C165.592 375.067 164.46 375.697 162.965 375.697C161.484 375.697 160.352 375.067 159.569 373.806C158.787 372.545 158.395 370.723 158.395 368.34C158.395 365.971 158.787 364.156 159.569 362.895C160.352 361.635 161.484 361.004 162.965 361.004ZM159.884 368.34C159.884 370.031 160.037 371.354 160.345 372.31L164.998 363.103C164.509 362.452 163.832 362.126 162.965 362.126C162.001 362.126 161.246 362.639 160.701 363.664C160.156 364.676 159.884 366.234 159.884 368.34ZM162.965 374.554C163.943 374.554 164.705 374.049 165.25 373.037C165.795 372.012 166.068 370.446 166.068 368.34C166.068 366.553 165.893 365.168 165.543 364.184L160.89 373.474C161.393 374.194 162.085 374.554 162.965 374.554Z" fill="url(#paint15_linear_122_130)" fill-opacity="0.6"/>
<path d="M162.965 384.755C164.46 384.755 165.592 385.386 166.361 386.646C167.144 387.893 167.535 389.708 167.535 392.091C167.535 394.474 167.144 396.296 166.361 397.557C165.592 398.818 164.46 399.448 162.965 399.448C161.484 399.448 160.352 398.818 159.569 397.557C158.787 396.296 158.395 394.474 158.395 392.091C158.395 389.722 158.787 387.907 159.569 386.646C160.352 385.386 161.484 384.755 162.965 384.755ZM159.884 392.091C159.884 393.782 160.037 395.105 160.345 396.061L164.998 386.854C164.509 386.203 163.832 385.878 162.965 385.878C162.001 385.878 161.246 386.39 160.701 387.415C160.156 388.427 159.884 389.985 159.884 392.091ZM162.965 398.305C163.943 398.305 164.705 397.8 165.25 396.788C165.795 395.763 166.068 394.197 166.068 392.091C166.068 390.304 165.893 388.919 165.543 387.935L160.89 397.225C161.393 397.945 162.085 398.305 162.965 398.305Z" fill="url(#paint16_linear_122_130)" fill-opacity="0.6"/>
<path d="M164.223 421.89H167.304V422.992H159.318V421.89H162.881V410.21L159.485 412.226L158.898 411.291L163.091 408.714H164.223V421.89Z" fill="url(#paint17_linear_122_130)" fill-opacity="0.6"/>
<path d="M162.965 432.257C164.46 432.257 165.592 432.888 166.361 434.149C167.144 435.396 167.535 437.211 167.535 439.594C167.535 441.977 167.144 443.798 166.361 445.059C165.592 446.32 164.46 446.95 162.965 446.95C161.484 446.95 160.352 446.32 159.569 445.059C158.787 443.798 158.395 441.977 158.395 439.594C158.395 437.224 158.787 435.409 159.569 434.149C160.352 432.888 161.484 432.257 162.965 432.257ZM159.884 439.594C159.884 441.284 160.037 442.607 160.345 443.563L164.998 434.356C164.509 433.705 163.832 433.38 162.965 433.38C162.001 433.38 161.246 433.892 160.701 434.918C160.156 435.929 159.884 437.488 159.884 439.594ZM162.965 445.807C163.943 445.807 164.705 445.302 165.25 444.29C165.795 443.265 166.068 441.699 166.068 439.594C166.068 437.806 165.893 436.421 165.543 435.437L160.89 444.727C161.393 445.447 162.085 445.807 162.965 445.807Z" fill="url(#paint18_linear_122_130)" fill-opacity="0.6"/>
<path d="M164.223 469.392H167.304V470.494H159.318V469.392H162.881V457.713L159.485 459.728L158.898 458.793L163.091 456.216H164.223V469.392Z" fill="url(#paint19_linear_122_130)" fill-opacity="0.6"/>
<path d="M162.965 479.76C164.46 479.76 165.592 480.39 166.361 481.651C167.144 482.898 167.535 484.713 167.535 487.096C167.535 489.479 167.144 491.301 166.361 492.561C165.592 493.822 164.46 494.453 162.965 494.453C161.484 494.453 160.352 493.822 159.569 492.561C158.787 491.301 158.395 489.479 158.395 487.096C158.395 484.726 158.787 482.911 159.569 481.651C160.352 480.39 161.484 479.76 162.965 479.76ZM159.884 487.096C159.884 488.786 160.037 490.109 160.345 491.065L164.998 481.859C164.509 481.207 163.832 480.882 162.965 480.882C162.001 480.882 161.246 481.394 160.701 482.42C160.156 483.431 159.884 484.99 159.884 487.096ZM162.965 493.31C163.943 493.31 164.705 492.804 165.25 491.792C165.795 490.767 166.068 489.202 166.068 487.096C166.068 485.308 165.893 483.923 165.543 482.939L160.89 492.229C161.393 492.949 162.085 493.31 162.965 493.31Z" fill="url(#paint20_linear_122_130)" fill-opacity="0.6"/>
<path d="M162.965 503.511C164.46 503.511 165.592 504.141 166.361 505.402C167.144 506.649 167.535 508.464 167.535 510.847C167.535 513.23 167.144 515.052 166.361 516.312C165.592 517.573 164.46 518.204 162.965 518.204C161.484 518.204 160.352 517.573 159.569 516.312C158.787 515.052 158.395 513.23 158.395 510.847C158.395 508.478 158.787 506.663 159.569 505.402C160.352 504.141 161.484 503.511 162.965 503.511ZM159.884 510.847C159.884 512.537 160.037 513.86 160.345 514.816L164.998 505.61C164.509 504.958 163.832 504.633 162.965 504.633C162.001 504.633 161.246 505.145 160.701 506.171C160.156 507.182 159.884 508.741 159.884 510.847ZM162.965 517.061C163.943 517.061 164.705 516.555 165.25 515.543C165.795 514.518 166.068 512.953 166.068 510.847C166.068 509.059 165.893 507.674 165.543 506.69L160.89 515.98C161.393 516.7 162.085 517.061 162.965 517.061Z" fill="url(#paint21_linear_122_130)" fill-opacity="0.6"/>
<path d="M164.223 540.645H167.304V541.747H159.318V540.645H162.881V528.966L159.485 530.982L158.898 530.046L163.091 527.469H164.223V540.645Z" fill="url(#paint22_linear_122_130)" fill-opacity="0.6"/>
<path d="M162.965 551.013C164.46 551.013 165.592 551.643 166.361 552.904C167.144 554.151 167.535 555.966 167.535 558.349C167.535 560.732 167.144 562.554 166.361 563.815C165.592 565.075 164.46 565.706 162.965 565.706C161.484 565.706 160.352 565.075 159.569 563.815C158.787 562.554 158.395 560.732 158.395 558.349C158.395 555.98 158.787 554.165 159.569 552.904C160.352 551.643 161.484 551.013 162.965 551.013ZM159.884 558.349C159.884 560.039 160.037 561.362 160.345 562.318L164.998 553.112C164.509 552.461 163.832 552.135 162.965 552.135C162.001 552.135 161.246 552.648 160.701 553.673C160.156 554.684 159.884 556.243 159.884 558.349ZM162.965 564.563C163.943 564.563 164.705 564.057 165.25 563.046C165.795 562.02 166.068 560.455 166.068 558.349C166.068 556.562 165.893 555.176 165.543 554.192L160.89 563.482C161.393 564.202 162.085 564.563 162.965 564.563Z" fill="url(#paint23_linear_122_130)" fill-opacity="0.6"/>
<path d="M164.223 588.148H167.304V589.249H159.318V588.148H162.881V576.468L159.485 578.484L158.898 577.549L163.091 574.972H164.223V588.148Z" fill="url(#paint24_linear_122_130)" fill-opacity="0.6"/>
<path d="M164.223 611.899H167.304V613H159.318V611.899H162.881V600.219L159.485 602.235L158.898 601.3L163.091 598.723H164.223V611.899Z" fill="url(#paint25_linear_122_130)" fill-opacity="0.6"/>
<path d="M104.57 337.253C106.065 337.253 107.197 337.884 107.966 339.144C108.748 340.391 109.14 342.206 109.14 344.589C109.14 346.972 108.748 348.794 107.966 350.055C107.197 351.316 106.065 351.946 104.57 351.946C103.088 351.946 101.956 351.316 101.174 350.055C100.391 348.794 100 346.972 100 344.589C100 342.22 100.391 340.405 101.174 339.144C101.956 337.884 103.088 337.253 104.57 337.253ZM101.488 344.589C101.488 346.28 101.642 347.603 101.95 348.559L106.603 339.352C106.114 338.701 105.436 338.375 104.57 338.375C103.606 338.375 102.851 338.888 102.306 339.913C101.761 340.925 101.488 342.483 101.488 344.589ZM104.57 350.803C105.548 350.803 106.31 350.297 106.855 349.286C107.4 348.261 107.672 346.695 107.672 344.589C107.672 342.802 107.498 341.417 107.148 340.433L102.495 349.722C102.998 350.443 103.689 350.803 104.57 350.803Z" fill="url(#paint26_linear_122_130)" fill-opacity="0.6"/>
<path d="M104.57 361.004C106.065 361.004 107.197 361.635 107.966 362.895C108.748 364.142 109.14 365.957 109.14 368.34C109.14 370.723 108.748 372.545 107.966 373.806C107.197 375.067 106.065 375.697 104.57 375.697C103.088 375.697 101.956 375.067 101.174 373.806C100.391 372.545 100 370.723 100 368.34C100 365.971 100.391 364.156 101.174 362.895C101.956 361.635 103.088 361.004 104.57 361.004ZM101.488 368.34C101.488 370.031 101.642 371.354 101.95 372.31L106.603 363.103C106.114 362.452 105.436 362.126 104.57 362.126C103.606 362.126 102.851 362.639 102.306 363.664C101.761 364.676 101.488 366.234 101.488 368.34ZM104.57 374.554C105.548 374.554 106.31 374.049 106.855 373.037C107.4 372.012 107.672 370.446 107.672 368.34C107.672 366.553 107.498 365.168 107.148 364.184L102.495 373.474C102.998 374.194 103.689 374.554 104.57 374.554Z" fill="url(#paint27_linear_122_130)" fill-opacity="0.6"/>
<path d="M105.828 398.139H108.909V399.24H100.922V398.139H104.486V386.459L101.09 388.475L100.503 387.54L104.696 384.963H105.828V398.139Z" fill="url(#paint28_linear_122_130)" fill-opacity="0.6"/>
<path d="M104.57 408.506C106.065 408.506 107.197 409.137 107.966 410.398C108.748 411.644 109.14 413.459 109.14 415.842C109.14 418.225 108.748 420.047 107.966 421.308C107.197 422.569 106.065 423.199 104.57 423.199C103.088 423.199 101.956 422.569 101.174 421.308C100.391 420.047 100 418.225 100 415.842C100 413.473 100.391 411.658 101.174 410.398C101.956 409.137 103.088 408.506 104.57 408.506ZM101.488 415.842C101.488 417.533 101.642 418.856 101.95 419.812L106.603 410.605C106.114 409.954 105.436 409.629 104.57 409.629C103.606 409.629 102.851 410.141 102.306 411.166C101.761 412.178 101.488 413.737 101.488 415.842ZM104.57 422.056C105.548 422.056 106.31 421.551 106.855 420.539C107.4 419.514 107.672 417.948 107.672 415.842C107.672 414.055 107.498 412.67 107.148 411.686L102.495 420.976C102.998 421.696 103.689 422.056 104.57 422.056Z" fill="url(#paint29_linear_122_130)" fill-opacity="0.6"/>
<path d="M105.828 445.641H108.909V446.743H100.922V445.641H104.486V433.962L101.09 435.977L100.503 435.042L104.696 432.465H105.828V445.641Z" fill="url(#paint30_linear_122_130)" fill-opacity="0.6"/>
<path d="M105.828 469.392H108.909V470.494H100.922V469.392H104.486V457.713L101.09 459.728L100.503 458.793L104.696 456.216H105.828V469.392Z" fill="url(#paint31_linear_122_130)" fill-opacity="0.6"/>
<path d="M144.758 303.135H147.839V304.236H139.853V303.135H143.416V291.455L140.02 293.471L139.433 292.536L143.626 289.959H144.758V303.135Z" fill="url(#paint32_linear_122_130)" fill-opacity="0.6"/>
<path d="M143.5 313.502C144.995 313.502 146.127 314.133 146.896 315.393C147.679 316.64 148.07 318.455 148.07 320.838C148.07 323.221 147.679 325.043 146.896 326.304C146.127 327.565 144.995 328.195 143.5 328.195C142.019 328.195 140.887 327.565 140.104 326.304C139.321 325.043 138.93 323.221 138.93 320.838C138.93 318.469 139.321 316.654 140.104 315.393C140.887 314.133 142.019 313.502 143.5 313.502ZM140.419 320.838C140.419 322.529 140.572 323.852 140.88 324.808L145.533 315.601C145.044 314.95 144.366 314.624 143.5 314.624C142.536 314.624 141.781 315.137 141.236 316.162C140.691 317.174 140.419 318.732 140.419 320.838ZM143.5 327.052C144.478 327.052 145.24 326.546 145.785 325.535C146.33 324.51 146.602 322.944 146.602 320.838C146.602 319.051 146.428 317.665 146.078 316.682L141.425 325.971C141.928 326.692 142.62 327.052 143.5 327.052Z" fill="url(#paint33_linear_122_130)" fill-opacity="0.6"/>
<path d="M144.758 350.637H147.839V351.738H139.853V350.637H143.416V338.957L140.02 340.973L139.433 340.038L143.626 337.461H144.758V350.637Z" fill="url(#paint34_linear_122_130)" fill-opacity="0.6"/>
<path d="M144.758 374.388H147.839V375.489H139.853V374.388H143.416V362.708L140.02 364.724L139.433 363.789L143.626 361.212H144.758V374.388Z" fill="url(#paint35_linear_122_130)" fill-opacity="0.6"/>
<path d="M143.5 384.755C144.995 384.755 146.127 385.386 146.896 386.646C147.679 387.893 148.07 389.708 148.07 392.091C148.07 394.474 147.679 396.296 146.896 397.557C146.127 398.818 144.995 399.448 143.5 399.448C142.019 399.448 140.887 398.818 140.104 397.557C139.321 396.296 138.93 394.474 138.93 392.091C138.93 389.722 139.321 387.907 140.104 386.646C140.887 385.386 142.019 384.755 143.5 384.755ZM140.419 392.091C140.419 393.782 140.572 395.105 140.88 396.061L145.533 386.854C145.044 386.203 144.366 385.878 143.5 385.878C142.536 385.878 141.781 386.39 141.236 387.415C140.691 388.427 140.419 389.985 140.419 392.091ZM143.5 398.305C144.478 398.305 145.24 397.8 145.785 396.788C146.33 395.763 146.602 394.197 146.602 392.091C146.602 390.304 146.428 388.919 146.078 387.935L141.425 397.225C141.928 397.945 142.62 398.305 143.5 398.305Z" fill="url(#paint36_linear_122_130)" fill-opacity="0.6"/>
<path d="M144.758 421.89H147.839V422.992H139.853V421.89H143.416V410.21L140.02 412.226L139.433 411.291L143.626 408.714H144.758V421.89Z" fill="url(#paint37_linear_122_130)" fill-opacity="0.6"/>
<path d="M144.758 445.641H147.839V446.743H139.853V445.641H143.416V433.962L140.02 435.977L139.433 435.042L143.626 432.465H144.758V445.641Z" fill="url(#paint38_linear_122_130)" fill-opacity="0.6"/>
<path d="M143.5 456.008C144.995 456.008 146.127 456.639 146.896 457.9C147.679 459.147 148.07 460.962 148.07 463.345C148.07 465.728 147.679 467.549 146.896 468.81C146.127 470.071 144.995 470.701 143.5 470.701C142.019 470.701 140.887 470.071 140.104 468.81C139.321 467.549 138.93 465.728 138.93 463.345C138.93 460.975 139.321 459.16 140.104 457.9C140.887 456.639 142.019 456.008 143.5 456.008ZM140.419 463.345C140.419 465.035 140.572 466.358 140.88 467.314L145.533 458.107C145.044 457.456 144.366 457.131 143.5 457.131C142.536 457.131 141.781 457.643 141.236 458.669C140.691 459.68 140.419 461.239 140.419 463.345ZM143.5 469.558C144.478 469.558 145.24 469.053 145.785 468.041C146.33 467.016 146.602 465.451 146.602 463.345C146.602 461.557 146.428 460.172 146.078 459.188L141.425 468.478C141.928 469.198 142.62 469.558 143.5 469.558Z" fill="url(#paint39_linear_122_130)" fill-opacity="0.6"/>
<path d="M144.758 493.143H147.839V494.245H139.853V493.143H143.416V481.464L140.02 483.48L139.433 482.544L143.626 479.967H144.758V493.143Z" fill="url(#paint40_linear_122_130)" fill-opacity="0.6"/>
<path d="M143.5 503.511C144.995 503.511 146.127 504.141 146.896 505.402C147.679 506.649 148.07 508.464 148.07 510.847C148.07 513.23 147.679 515.052 146.896 516.312C146.127 517.573 144.995 518.204 143.5 518.204C142.019 518.204 140.887 517.573 140.104 516.312C139.321 515.052 138.93 513.23 138.93 510.847C138.93 508.478 139.321 506.663 140.104 505.402C140.887 504.141 142.019 503.511 143.5 503.511ZM140.419 510.847C140.419 512.537 140.572 513.86 140.88 514.816L145.533 505.61C145.044 504.958 144.366 504.633 143.5 504.633C142.536 504.633 141.781 505.145 141.236 506.171C140.691 507.182 140.419 508.741 140.419 510.847ZM143.5 517.061C144.478 517.061 145.24 516.555 145.785 515.543C146.33 514.518 146.602 512.953 146.602 510.847C146.602 509.059 146.428 507.674 146.078 506.69L141.425 515.98C141.928 516.7 142.62 517.061 143.5 517.061Z" fill="url(#paint41_linear_122_130)" fill-opacity="0.6"/>
<path d="M182.43 289.751C183.926 289.751 185.057 290.381 185.826 291.642C186.609 292.889 187 294.704 187 297.087C187 299.47 186.609 301.292 185.826 302.553C185.057 303.814 183.926 304.444 182.43 304.444C180.949 304.444 179.817 303.814 179.034 302.553C178.252 301.292 177.86 299.47 177.86 297.087C177.86 294.718 178.252 292.903 179.034 291.642C179.817 290.381 180.949 289.751 182.43 289.751ZM179.349 297.087C179.349 298.777 179.502 300.101 179.81 301.057L184.464 291.85C183.974 291.199 183.297 290.873 182.43 290.873C181.466 290.873 180.711 291.386 180.166 292.411C179.621 293.423 179.349 294.981 179.349 297.087ZM182.43 303.301C183.408 303.301 184.17 302.795 184.715 301.784C185.26 300.759 185.533 299.193 185.533 297.087C185.533 295.3 185.358 293.914 185.009 292.931L180.355 302.22C180.858 302.941 181.55 303.301 182.43 303.301Z" fill="url(#paint42_linear_122_130)" fill-opacity="0.6"/>
<path d="M183.688 326.886H186.769V327.987H178.783V326.886H182.346V315.206L178.95 317.222L178.363 316.287L182.556 313.71H183.688V326.886Z" fill="url(#paint43_linear_122_130)" fill-opacity="0.6"/>
<path d="M183.688 350.637H186.769V351.738H178.783V350.637H182.346V338.957L178.95 340.973L178.363 340.038L182.556 337.461H183.688V350.637Z" fill="url(#paint44_linear_122_130)" fill-opacity="0.6"/>
<path d="M182.43 361.004C183.926 361.004 185.057 361.635 185.826 362.895C186.609 364.142 187 365.957 187 368.34C187 370.723 186.609 372.545 185.826 373.806C185.057 375.067 183.926 375.697 182.43 375.697C180.949 375.697 179.817 375.067 179.034 373.806C178.252 372.545 177.86 370.723 177.86 368.34C177.86 365.971 178.252 364.156 179.034 362.895C179.817 361.635 180.949 361.004 182.43 361.004ZM179.349 368.34C179.349 370.031 179.502 371.354 179.81 372.31L184.464 363.103C183.974 362.452 183.297 362.126 182.43 362.126C181.466 362.126 180.711 362.639 180.166 363.664C179.621 364.676 179.349 366.234 179.349 368.34ZM182.43 374.554C183.408 374.554 184.17 374.049 184.715 373.037C185.26 372.012 185.533 370.446 185.533 368.34C185.533 366.553 185.358 365.168 185.009 364.184L180.355 373.474C180.858 374.194 181.55 374.554 182.43 374.554Z" fill="url(#paint45_linear_122_130)" fill-opacity="0.6"/>
<path d="M182.43 384.755C183.926 384.755 185.057 385.386 185.826 386.646C186.609 387.893 187 389.708 187 392.091C187 394.474 186.609 396.296 185.826 397.557C185.057 398.818 183.926 399.448 182.43 399.448C180.949 399.448 179.817 398.818 179.034 397.557C178.252 396.296 177.86 394.474 177.86 392.091C177.86 389.722 178.252 387.907 179.034 386.646C179.817 385.386 180.949 384.755 182.43 384.755ZM179.349 392.091C179.349 393.782 179.502 395.105 179.81 396.061L184.464 386.854C183.974 386.203 183.297 385.878 182.43 385.878C181.466 385.878 180.711 386.39 180.166 387.415C179.621 388.427 179.349 389.985 179.349 392.091ZM182.43 398.305C183.408 398.305 184.17 397.8 184.715 396.788C185.26 395.763 185.533 394.197 185.533 392.091C185.533 390.304 185.358 388.919 185.009 387.935L180.355 397.225C180.858 397.945 181.55 398.305 182.43 398.305Z" fill="url(#paint46_linear_122_130)" fill-opacity="0.6"/>
<g opacity="0.6">
<path d="M1010.93 -34C1012.36 -34 1013.44 -33.395 1014.17 -32.1851C1014.92 -30.9885 1015.29 -29.2468 1015.29 -26.9599C1015.29 -24.673 1014.92 -22.9246 1014.17 -21.7147C1013.44 -20.5048 1012.36 -19.8998 1010.93 -19.8998C1009.52 -19.8998 1008.44 -20.5048 1007.69 -21.7147C1006.94 -22.9246 1006.57 -24.673 1006.57 -26.9599C1006.57 -29.2335 1006.94 -30.9752 1007.69 -32.1851C1008.44 -33.395 1009.52 -34 1010.93 -34ZM1007.99 -26.9599C1007.99 -25.3378 1008.14 -24.068 1008.43 -23.1506L1012.87 -31.9857C1012.4 -32.6106 1011.76 -32.923 1010.93 -32.923C1010.01 -32.923 1009.29 -32.4311 1008.77 -31.4472C1008.25 -30.4766 1007.99 -28.9808 1007.99 -26.9599ZM1010.93 -20.9967C1011.86 -20.9967 1012.59 -21.482 1013.11 -22.4526C1013.63 -23.4365 1013.89 -24.9389 1013.89 -26.9599C1013.89 -28.675 1013.72 -30.0046 1013.39 -30.9486L1008.95 -22.0338C1009.43 -21.3424 1010.09 -20.9967 1010.93 -20.9967Z" fill="url(#paint47_linear_122_130)"/>
<path d="M1012.13 1.63655H1015.07V2.69356H1007.45V1.63655H1010.85V-9.57181L1007.61 -7.63727L1007.05 -8.53474L1011.05 -11.0078H1012.13V1.63655Z" fill="url(#paint48_linear_122_130)"/>
<path d="M1010.93 11.5856C1012.36 11.5856 1013.44 12.1906 1014.17 13.4005C1014.92 14.5971 1015.29 16.3389 1015.29 18.6257C1015.29 20.9126 1014.92 22.661 1014.17 23.8709C1013.44 25.0808 1012.36 25.6858 1010.93 25.6858C1009.52 25.6858 1008.44 25.0808 1007.69 23.8709C1006.94 22.661 1006.57 20.9126 1006.57 18.6257C1006.57 16.3522 1006.94 14.6104 1007.69 13.4005C1008.44 12.1906 1009.52 11.5856 1010.93 11.5856ZM1007.99 18.6257C1007.99 20.2478 1008.14 21.5176 1008.43 22.435L1012.87 13.5999C1012.4 12.975 1011.76 12.6626 1010.93 12.6626C1010.01 12.6626 1009.29 13.1545 1008.77 14.1384C1008.25 15.109 1007.99 16.6048 1007.99 18.6257ZM1010.93 24.5889C1011.86 24.5889 1012.59 24.1036 1013.11 23.133C1013.63 22.1491 1013.89 20.6467 1013.89 18.6257C1013.89 16.9106 1013.72 15.581 1013.39 14.637L1008.95 23.5518C1009.43 24.2432 1010.09 24.5889 1010.93 24.5889Z" fill="url(#paint49_linear_122_130)"/>
<path d="M1012.13 47.2221H1015.07V48.2792H1007.45V47.2221H1010.85V36.0138L1007.61 37.9483L1007.05 37.0509L1011.05 34.5778H1012.13V47.2221Z" fill="url(#paint50_linear_122_130)"/>
<path d="M1012.13 70.015H1015.07V71.072H1007.45V70.015H1010.85V58.8066L1007.61 60.7411L1007.05 59.8437L1011.05 57.3706H1012.13V70.015Z" fill="url(#paint51_linear_122_130)"/>
<path d="M1010.93 79.964C1012.36 79.964 1013.44 80.569 1014.17 81.7789C1014.92 82.9755 1015.29 84.7173 1015.29 87.0041C1015.29 89.291 1014.92 91.0394 1014.17 92.2493C1013.44 93.4593 1012.36 94.0642 1010.93 94.0642C1009.52 94.0642 1008.44 93.4593 1007.69 92.2493C1006.94 91.0394 1006.57 89.291 1006.57 87.0041C1006.57 84.7306 1006.94 82.9888 1007.69 81.7789C1008.44 80.569 1009.52 79.964 1010.93 79.964ZM1007.99 87.0041C1007.99 88.6262 1008.14 89.896 1008.43 90.8134L1012.87 81.9783C1012.4 81.3534 1011.76 81.041 1010.93 81.041C1010.01 81.041 1009.29 81.5329 1008.77 82.5168C1008.25 83.4874 1007.99 84.9832 1007.99 87.0041ZM1010.93 92.9673C1011.86 92.9673 1012.59 92.482 1013.11 91.5114C1013.63 90.5275 1013.89 89.0251 1013.89 87.0041C1013.89 85.289 1013.72 83.9594 1013.39 83.0154L1008.95 91.9302C1009.43 92.6216 1010.09 92.9673 1010.93 92.9673Z" fill="url(#paint52_linear_122_130)"/>
<path d="M1012.13 115.601H1015.07V116.658H1007.45V115.601H1010.85V104.392L1007.61 106.327L1007.05 105.429L1011.05 102.956H1012.13V115.601Z" fill="url(#paint53_linear_122_130)"/>
<path d="M1010.93 125.55C1012.36 125.55 1013.44 126.155 1014.17 127.365C1014.92 128.561 1015.29 130.303 1015.29 132.59C1015.29 134.877 1014.92 136.625 1014.17 137.835C1013.44 139.045 1012.36 139.65 1010.93 139.65C1009.52 139.65 1008.44 139.045 1007.69 137.835C1006.94 136.625 1006.57 134.877 1006.57 132.59C1006.57 130.316 1006.94 128.574 1007.69 127.365C1008.44 126.155 1009.52 125.55 1010.93 125.55ZM1007.99 132.59C1007.99 134.212 1008.14 135.482 1008.43 136.399L1012.87 127.564C1012.4 126.939 1011.76 126.627 1010.93 126.627C1010.01 126.627 1009.29 127.119 1008.77 128.102C1008.25 129.073 1007.99 130.569 1007.99 132.59ZM1010.93 138.553C1011.86 138.553 1012.59 138.068 1013.11 137.097C1013.63 136.113 1013.89 134.611 1013.89 132.59C1013.89 130.875 1013.72 129.545 1013.39 128.601L1008.95 137.516C1009.43 138.207 1010.09 138.553 1010.93 138.553Z" fill="url(#paint54_linear_122_130)"/>
<path d="M1010.93 148.342C1012.36 148.342 1013.44 148.947 1014.17 150.157C1014.92 151.354 1015.29 153.096 1015.29 155.383C1015.29 157.669 1014.92 159.418 1014.17 160.628C1013.44 161.838 1012.36 162.443 1010.93 162.443C1009.52 162.443 1008.44 161.838 1007.69 160.628C1006.94 159.418 1006.57 157.669 1006.57 155.383C1006.57 153.109 1006.94 151.367 1007.69 150.157C1008.44 148.947 1009.52 148.342 1010.93 148.342ZM1007.99 155.383C1007.99 157.005 1008.14 158.274 1008.43 159.192L1012.87 150.357C1012.4 149.732 1011.76 149.419 1010.93 149.419C1010.01 149.419 1009.29 149.911 1008.77 150.895C1008.25 151.866 1007.99 153.362 1007.99 155.383ZM1010.93 161.346C1011.86 161.346 1012.59 160.86 1013.11 159.89C1013.63 158.906 1013.89 157.404 1013.89 155.383C1013.89 153.667 1013.72 152.338 1013.39 151.394L1008.95 160.309C1009.43 161 1010.09 161.346 1010.93 161.346Z" fill="url(#paint55_linear_122_130)"/>
<path d="M1012.13 183.979H1015.07V185.036H1007.45V183.979H1010.85V172.771L1007.61 174.705L1007.05 173.808L1011.05 171.335H1012.13V183.979Z" fill="url(#paint56_linear_122_130)"/>
<path d="M1010.93 193.928C1012.36 193.928 1013.44 194.533 1014.17 195.743C1014.92 196.94 1015.29 198.681 1015.29 200.968C1015.29 203.255 1014.92 205.003 1014.17 206.213C1013.44 207.423 1012.36 208.028 1010.93 208.028C1009.52 208.028 1008.44 207.423 1007.69 206.213C1006.94 205.003 1006.57 203.255 1006.57 200.968C1006.57 198.695 1006.94 196.953 1007.69 195.743C1008.44 194.533 1009.52 193.928 1010.93 193.928ZM1007.99 200.968C1007.99 202.59 1008.14 203.86 1008.43 204.777L1012.87 195.942C1012.4 195.317 1011.76 195.005 1010.93 195.005C1010.01 195.005 1009.29 195.497 1008.77 196.481C1008.25 197.451 1007.99 198.947 1007.99 200.968ZM1010.93 206.931C1011.86 206.931 1012.59 206.446 1013.11 205.475C1013.63 204.492 1013.89 202.989 1013.89 200.968C1013.89 199.253 1013.72 197.923 1013.39 196.979L1008.95 205.894C1009.43 206.586 1010.09 206.931 1010.93 206.931Z" fill="url(#paint57_linear_122_130)"/>
<path d="M1012.13 229.565H1015.07V230.622H1007.45V229.565H1010.85V218.356L1007.61 220.291L1007.05 219.393L1011.05 216.92H1012.13V229.565Z" fill="url(#paint58_linear_122_130)"/>
<path d="M1012.13 252.357H1015.07V253.414H1007.45V252.357H1010.85V241.149L1007.61 243.084L1007.05 242.186L1011.05 239.713H1012.13V252.357Z" fill="url(#paint59_linear_122_130)"/>
<path d="M1048.07 11.5856C1049.5 11.5856 1050.58 12.1906 1051.31 13.4005C1052.06 14.5971 1052.43 16.3389 1052.43 18.6257C1052.43 20.9126 1052.06 22.661 1051.31 23.8709C1050.58 25.0808 1049.5 25.6858 1048.07 25.6858C1046.66 25.6858 1045.58 25.0808 1044.83 23.8709C1044.08 22.661 1043.71 20.9126 1043.71 18.6257C1043.71 16.3522 1044.08 14.6104 1044.83 13.4005C1045.58 12.1906 1046.66 11.5856 1048.07 11.5856ZM1045.13 18.6257C1045.13 20.2478 1045.28 21.5176 1045.57 22.435L1050.01 13.5999C1049.54 12.975 1048.9 12.6626 1048.07 12.6626C1047.15 12.6626 1046.43 13.1545 1045.91 14.1384C1045.39 15.109 1045.13 16.6048 1045.13 18.6257ZM1048.07 24.5889C1049 24.5889 1049.73 24.1036 1050.25 23.133C1050.77 22.1491 1051.03 20.6467 1051.03 18.6257C1051.03 16.9106 1050.86 15.581 1050.53 14.637L1046.09 23.5518C1046.57 24.2432 1047.23 24.5889 1048.07 24.5889Z" fill="url(#paint60_linear_122_130)"/>
<path d="M1049.27 47.2221H1052.21V48.2792H1044.59V47.2221H1047.99V36.0138L1044.75 37.9483L1044.19 37.0509L1048.19 34.5778H1049.27V47.2221Z" fill="url(#paint61_linear_122_130)"/>
<path d="M1048.07 57.1712C1049.5 57.1712 1050.58 57.7762 1051.31 58.9861C1052.06 60.1827 1052.43 61.9245 1052.43 64.2113C1052.43 66.4982 1052.06 68.2466 1051.31 69.4565C1050.58 70.6664 1049.5 71.2714 1048.07 71.2714C1046.66 71.2714 1045.58 70.6664 1044.83 69.4565C1044.08 68.2466 1043.71 66.4982 1043.71 64.2113C1043.71 61.9378 1044.08 60.196 1044.83 58.9861C1045.58 57.7762 1046.66 57.1712 1048.07 57.1712ZM1045.13 64.2113C1045.13 65.8334 1045.28 67.1032 1045.57 68.0206L1050.01 59.1855C1049.54 58.5606 1048.9 58.2482 1048.07 58.2482C1047.15 58.2482 1046.43 58.7401 1045.91 59.724C1045.39 60.6946 1045.13 62.1904 1045.13 64.2113ZM1048.07 70.1745C1049 70.1745 1049.73 69.6892 1050.25 68.7186C1050.77 67.7347 1051.03 66.2323 1051.03 64.2113C1051.03 62.4962 1050.86 61.1666 1050.53 60.2226L1046.09 69.1374C1046.57 69.8288 1047.23 70.1745 1048.07 70.1745Z" fill="url(#paint62_linear_122_130)"/>
<path d="M1048.07 79.964C1049.5 79.964 1050.58 80.569 1051.31 81.7789C1052.06 82.9755 1052.43 84.7173 1052.43 87.0041C1052.43 89.291 1052.06 91.0394 1051.31 92.2493C1050.58 93.4593 1049.5 94.0642 1048.07 94.0642C1046.66 94.0642 1045.58 93.4593 1044.83 92.2493C1044.08 91.0394 1043.71 89.291 1043.71 87.0041C1043.71 84.7306 1044.08 82.9888 1044.83 81.7789C1045.58 80.569 1046.66 79.964 1048.07 79.964ZM1045.13 87.0041C1045.13 88.6262 1045.28 89.896 1045.57 90.8134L1050.01 81.9783C1049.54 81.3534 1048.9 81.041 1048.07 81.041C1047.15 81.041 1046.43 81.5329 1045.91 82.5168C1045.39 83.4874 1045.13 84.9832 1045.13 87.0041ZM1048.07 92.9673C1049 92.9673 1049.73 92.482 1050.25 91.5114C1050.77 90.5275 1051.03 89.0251 1051.03 87.0041C1051.03 85.289 1050.86 83.9594 1050.53 83.0154L1046.09 91.9302C1046.57 92.6216 1047.23 92.9673 1048.07 92.9673Z" fill="url(#paint63_linear_122_130)"/>
<path d="M1049.27 115.601H1052.21V116.658H1044.59V115.601H1047.99V104.392L1044.75 106.327L1044.19 105.429L1048.19 102.956H1049.27V115.601Z" fill="url(#paint64_linear_122_130)"/>
<path d="M1048.07 125.55C1049.5 125.55 1050.58 126.155 1051.31 127.365C1052.06 128.561 1052.43 130.303 1052.43 132.59C1052.43 134.877 1052.06 136.625 1051.31 137.835C1050.58 139.045 1049.5 139.65 1048.07 139.65C1046.66 139.65 1045.58 139.045 1044.83 137.835C1044.08 136.625 1043.71 134.877 1043.71 132.59C1043.71 130.316 1044.08 128.574 1044.83 127.365C1045.58 126.155 1046.66 125.55 1048.07 125.55ZM1045.13 132.59C1045.13 134.212 1045.28 135.482 1045.57 136.399L1050.01 127.564C1049.54 126.939 1048.9 126.627 1048.07 126.627C1047.15 126.627 1046.43 127.119 1045.91 128.102C1045.39 129.073 1045.13 130.569 1045.13 132.59ZM1048.07 138.553C1049 138.553 1049.73 138.068 1050.25 137.097C1050.77 136.113 1051.03 134.611 1051.03 132.59C1051.03 130.875 1050.86 129.545 1050.53 128.601L1046.09 137.516C1046.57 138.207 1047.23 138.553 1048.07 138.553Z" fill="url(#paint65_linear_122_130)"/>
<path d="M1049.27 161.186H1052.21V162.243H1044.59V161.186H1047.99V149.978L1044.75 151.912L1044.19 151.015L1048.19 148.542H1049.27V161.186Z" fill="url(#paint66_linear_122_130)"/>
<path d="M1048.07 171.135C1049.5 171.135 1050.58 171.74 1051.31 172.95C1052.06 174.147 1052.43 175.888 1052.43 178.175C1052.43 180.462 1052.06 182.211 1051.31 183.421C1050.58 184.63 1049.5 185.235 1048.07 185.235C1046.66 185.235 1045.58 184.63 1044.83 183.421C1044.08 182.211 1043.71 180.462 1043.71 178.175C1043.71 175.902 1044.08 174.16 1044.83 172.95C1045.58 171.74 1046.66 171.135 1048.07 171.135ZM1045.13 178.175C1045.13 179.797 1045.28 181.067 1045.57 181.985L1050.01 173.15C1049.54 172.525 1048.9 172.212 1048.07 172.212C1047.15 172.212 1046.43 172.704 1045.91 173.688C1045.39 174.659 1045.13 176.154 1045.13 178.175ZM1048.07 184.139C1049 184.139 1049.73 183.653 1050.25 182.683C1050.77 181.699 1051.03 180.196 1051.03 178.175C1051.03 176.46 1050.86 175.131 1050.53 174.187L1046.09 183.101C1046.57 183.793 1047.23 184.139 1048.07 184.139Z" fill="url(#paint67_linear_122_130)"/>
<path d="M1048.07 193.928C1049.5 193.928 1050.58 194.533 1051.31 195.743C1052.06 196.94 1052.43 198.681 1052.43 200.968C1052.43 203.255 1052.06 205.003 1051.31 206.213C1050.58 207.423 1049.5 208.028 1048.07 208.028C1046.66 208.028 1045.58 207.423 1044.83 206.213C1044.08 205.003 1043.71 203.255 1043.71 200.968C1043.71 198.695 1044.08 196.953 1044.83 195.743C1045.58 194.533 1046.66 193.928 1048.07 193.928ZM1045.13 200.968C1045.13 202.59 1045.28 203.86 1045.57 204.777L1050.01 195.942C1049.54 195.317 1048.9 195.005 1048.07 195.005C1047.15 195.005 1046.43 195.497 1045.91 196.481C1045.39 197.451 1045.13 198.947 1045.13 200.968ZM1048.07 206.931C1049 206.931 1049.73 206.446 1050.25 205.475C1050.77 204.492 1051.03 202.989 1051.03 200.968C1051.03 199.253 1050.86 197.923 1050.53 196.979L1046.09 205.894C1046.57 206.586 1047.23 206.931 1048.07 206.931Z" fill="url(#paint68_linear_122_130)"/>
<path d="M1049.27 229.565H1052.21V230.622H1044.59V229.565H1047.99V218.356L1044.75 220.291L1044.19 219.393L1048.19 216.92H1049.27V229.565Z" fill="url(#paint69_linear_122_130)"/>
<path d="M1048.07 239.514C1049.5 239.514 1050.58 240.119 1051.31 241.329C1052.06 242.525 1052.43 244.267 1052.43 246.554C1052.43 248.841 1052.06 250.589 1051.31 251.799C1050.58 253.009 1049.5 253.614 1048.07 253.614C1046.66 253.614 1045.58 253.009 1044.83 251.799C1044.08 250.589 1043.71 248.841 1043.71 246.554C1043.71 244.28 1044.08 242.538 1044.83 241.329C1045.58 240.119 1046.66 239.514 1048.07 239.514ZM1045.13 246.554C1045.13 248.176 1045.28 249.446 1045.57 250.363L1050.01 241.528C1049.54 240.903 1048.9 240.591 1048.07 240.591C1047.15 240.591 1046.43 241.083 1045.91 242.066C1045.39 243.037 1045.13 244.533 1045.13 246.554ZM1048.07 252.517C1049 252.517 1049.73 252.032 1050.25 251.061C1050.77 250.077 1051.03 248.575 1051.03 246.554C1051.03 244.839 1050.86 243.509 1050.53 242.565L1046.09 251.48C1046.57 252.171 1047.23 252.517 1048.07 252.517Z" fill="url(#paint70_linear_122_130)"/>
<path d="M1049.27 275.15H1052.21V276.207H1044.59V275.15H1047.99V263.942L1044.75 265.876L1044.19 264.979L1048.19 262.506H1049.27V275.15Z" fill="url(#paint71_linear_122_130)"/>
<path d="M1049.27 297.943H1052.21V299H1044.59V297.943H1047.99V286.735L1044.75 288.669L1044.19 287.772L1048.19 285.299H1049.27V297.943Z" fill="url(#paint72_linear_122_130)"/>
<path d="M992.36 34.3784C993.786 34.3784 994.866 34.9834 995.599 36.1933C996.346 37.3899 996.719 39.1317 996.719 41.4185C996.719 43.7054 996.346 45.4538 995.599 46.6637C994.866 47.8736 993.786 48.4786 992.36 48.4786C990.946 48.4786 989.867 47.8736 989.12 46.6637C988.373 45.4538 988 43.7054 988 41.4185C988 39.145 988.373 37.4032 989.12 36.1933C989.867 34.9834 990.946 34.3784 992.36 34.3784ZM989.42 41.4185C989.42 43.0406 989.567 44.3104 989.86 45.2278L994.3 36.3927C993.833 35.7678 993.186 35.4554 992.36 35.4554C991.44 35.4554 990.72 35.9473 990.2 36.9312C989.68 37.9018 989.42 39.3976 989.42 41.4185ZM992.36 47.3817C993.293 47.3817 994.02 46.8964 994.54 45.9258C995.06 44.9419 995.319 43.4395 995.319 41.4185C995.319 39.7034 995.153 38.3738 994.82 37.4298L990.38 46.3446C990.86 47.036 991.52 47.3817 992.36 47.3817Z" fill="url(#paint73_linear_122_130)"/>
<path d="M992.36 57.1712C993.786 57.1712 994.866 57.7762 995.599 58.9861C996.346 60.1827 996.719 61.9245 996.719 64.2113C996.719 66.4982 996.346 68.2466 995.599 69.4565C994.866 70.6664 993.786 71.2714 992.36 71.2714C990.946 71.2714 989.867 70.6664 989.12 69.4565C988.373 68.2466 988 66.4982 988 64.2113C988 61.9378 988.373 60.196 989.12 58.9861C989.867 57.7762 990.946 57.1712 992.36 57.1712ZM989.42 64.2113C989.42 65.8334 989.567 67.1032 989.86 68.0206L994.3 59.1855C993.833 58.5606 993.186 58.2482 992.36 58.2482C991.44 58.2482 990.72 58.7401 990.2 59.724C989.68 60.6946 989.42 62.1904 989.42 64.2113ZM992.36 70.1745C993.293 70.1745 994.02 69.6892 994.54 68.7186C995.06 67.7347 995.319 66.2323 995.319 64.2113C995.319 62.4962 995.153 61.1666 994.82 60.2226L990.38 69.1374C990.86 69.8288 991.52 70.1745 992.36 70.1745Z" fill="url(#paint74_linear_122_130)"/>
<path d="M993.56 92.8078H996.499V93.8648H988.88V92.8078H992.28V81.5994L989.04 83.5339L988.48 82.6365L992.48 80.1635H993.56V92.8078Z" fill="url(#paint75_linear_122_130)"/>
<path d="M992.36 102.757C993.786 102.757 994.866 103.362 995.599 104.572C996.346 105.768 996.719 107.51 996.719 109.797C996.719 112.084 996.346 113.832 995.599 115.042C994.866 116.252 993.786 116.857 992.36 116.857C990.946 116.857 989.867 116.252 989.12 115.042C988.373 113.832 988 112.084 988 109.797C988 107.523 988.373 105.782 989.12 104.572C989.867 103.362 990.946 102.757 992.36 102.757ZM989.42 109.797C989.42 111.419 989.567 112.689 989.86 113.606L994.3 104.771C993.833 104.146 993.186 103.834 992.36 103.834C991.44 103.834 990.72 104.326 990.2 105.31C989.68 106.28 989.42 107.776 989.42 109.797ZM992.36 115.76C993.293 115.76 994.02 115.275 994.54 114.304C995.06 113.32 995.319 111.818 995.319 109.797C995.319 108.082 995.153 106.752 994.82 105.808L990.38 114.723C990.86 115.414 991.52 115.76 992.36 115.76Z" fill="url(#paint76_linear_122_130)"/>
<path d="M993.56 138.393H996.499V139.45H988.88V138.393H992.28V127.185L989.04 129.12L988.48 128.222L992.48 125.749H993.56V138.393Z" fill="url(#paint77_linear_122_130)"/>
<path d="M993.56 161.186H996.499V162.243H988.88V161.186H992.28V149.978L989.04 151.912L988.48 151.015L992.48 148.542H993.56V161.186Z" fill="url(#paint78_linear_122_130)"/>
<path d="M1030.7 1.63655H1033.64V2.69356H1026.02V1.63655H1029.42V-9.57181L1026.18 -7.63727L1025.62 -8.53474L1029.62 -11.0078H1030.7V1.63655Z" fill="url(#paint79_linear_122_130)"/>
<path d="M1029.5 11.5856C1030.93 11.5856 1032.01 12.1906 1032.74 13.4005C1033.49 14.5971 1033.86 16.3389 1033.86 18.6257C1033.86 20.9126 1033.49 22.661 1032.74 23.8709C1032.01 25.0808 1030.93 25.6858 1029.5 25.6858C1028.09 25.6858 1027.01 25.0808 1026.26 23.8709C1025.51 22.661 1025.14 20.9126 1025.14 18.6257C1025.14 16.3522 1025.51 14.6104 1026.26 13.4005C1027.01 12.1906 1028.09 11.5856 1029.5 11.5856ZM1026.56 18.6257C1026.56 20.2478 1026.71 21.5176 1027 22.435L1031.44 13.5999C1030.97 12.975 1030.33 12.6626 1029.5 12.6626C1028.58 12.6626 1027.86 13.1545 1027.34 14.1384C1026.82 15.109 1026.56 16.6048 1026.56 18.6257ZM1029.5 24.5889C1030.43 24.5889 1031.16 24.1036 1031.68 23.133C1032.2 22.1491 1032.46 20.6467 1032.46 18.6257C1032.46 16.9106 1032.29 15.581 1031.96 14.637L1027.52 23.5518C1028 24.2432 1028.66 24.5889 1029.5 24.5889Z" fill="url(#paint80_linear_122_130)"/>
<path d="M1030.7 47.2221H1033.64V48.2792H1026.02V47.2221H1029.42V36.0138L1026.18 37.9483L1025.62 37.0509L1029.62 34.5778H1030.7V47.2221Z" fill="url(#paint81_linear_122_130)"/>
<path d="M1030.7 70.015H1033.64V71.072H1026.02V70.015H1029.42V58.8066L1026.18 60.7411L1025.62 59.8437L1029.62 57.3706H1030.7V70.015Z" fill="url(#paint82_linear_122_130)"/>
<path d="M1029.5 79.964C1030.93 79.964 1032.01 80.569 1032.74 81.7789C1033.49 82.9755 1033.86 84.7173 1033.86 87.0041C1033.86 89.291 1033.49 91.0394 1032.74 92.2493C1032.01 93.4593 1030.93 94.0642 1029.5 94.0642C1028.09 94.0642 1027.01 93.4593 1026.26 92.2493C1025.51 91.0394 1025.14 89.291 1025.14 87.0041C1025.14 84.7306 1025.51 82.9888 1026.26 81.7789C1027.01 80.569 1028.09 79.964 1029.5 79.964ZM1026.56 87.0041C1026.56 88.6262 1026.71 89.896 1027 90.8134L1031.44 81.9783C1030.97 81.3534 1030.33 81.041 1029.5 81.041C1028.58 81.041 1027.86 81.5329 1027.34 82.5168C1026.82 83.4874 1026.56 84.9832 1026.56 87.0041ZM1029.5 92.9673C1030.43 92.9673 1031.16 92.482 1031.68 91.5114C1032.2 90.5275 1032.46 89.0251 1032.46 87.0041C1032.46 85.289 1032.29 83.9594 1031.96 83.0154L1027.52 91.9302C1028 92.6216 1028.66 92.9673 1029.5 92.9673Z" fill="url(#paint83_linear_122_130)"/>
<path d="M1030.7 115.601H1033.64V116.658H1026.02V115.601H1029.42V104.392L1026.18 106.327L1025.62 105.429L1029.62 102.956H1030.7V115.601Z" fill="url(#paint84_linear_122_130)"/>
<path d="M1030.7 138.393H1033.64V139.45H1026.02V138.393H1029.42V127.185L1026.18 129.12L1025.62 128.222L1029.62 125.749H1030.7V138.393Z" fill="url(#paint85_linear_122_130)"/>
<path d="M1029.5 148.342C1030.93 148.342 1032.01 148.947 1032.74 150.157C1033.49 151.354 1033.86 153.096 1033.86 155.383C1033.86 157.669 1033.49 159.418 1032.74 160.628C1032.01 161.838 1030.93 162.443 1029.5 162.443C1028.09 162.443 1027.01 161.838 1026.26 160.628C1025.51 159.418 1025.14 157.669 1025.14 155.383C1025.14 153.109 1025.51 151.367 1026.26 150.157C1027.01 148.947 1028.09 148.342 1029.5 148.342ZM1026.56 155.383C1026.56 157.005 1026.71 158.274 1027 159.192L1031.44 150.357C1030.97 149.732 1030.33 149.419 1029.5 149.419C1028.58 149.419 1027.86 149.911 1027.34 150.895C1026.82 151.866 1026.56 153.362 1026.56 155.383ZM1029.5 161.346C1030.43 161.346 1031.16 160.86 1031.68 159.89C1032.2 158.906 1032.46 157.404 1032.46 155.383C1032.46 153.667 1032.29 152.338 1031.96 151.394L1027.52 160.309C1028 161 1028.66 161.346 1029.5 161.346Z" fill="url(#paint86_linear_122_130)"/>
<path d="M1030.7 183.979H1033.64V185.036H1026.02V183.979H1029.42V172.771L1026.18 174.705L1025.62 173.808L1029.62 171.335H1030.7V183.979Z" fill="url(#paint87_linear_122_130)"/>
<path d="M1029.5 193.928C1030.93 193.928 1032.01 194.533 1032.74 195.743C1033.49 196.94 1033.86 198.681 1033.86 200.968C1033.86 203.255 1033.49 205.003 1032.74 206.213C1032.01 207.423 1030.93 208.028 1029.5 208.028C1028.09 208.028 1027.01 207.423 1026.26 206.213C1025.51 205.003 1025.14 203.255 1025.14 200.968C1025.14 198.695 1025.51 196.953 1026.26 195.743C1027.01 194.533 1028.09 193.928 1029.5 193.928ZM1026.56 200.968C1026.56 202.59 1026.71 203.86 1027 204.777L1031.44 195.942C1030.97 195.317 1030.33 195.005 1029.5 195.005C1028.58 195.005 1027.86 195.497 1027.34 196.481C1026.82 197.451 1026.56 198.947 1026.56 200.968ZM1029.5 206.931C1030.43 206.931 1031.16 206.446 1031.68 205.475C1032.2 204.492 1032.46 202.989 1032.46 200.968C1032.46 199.253 1032.29 197.923 1031.96 196.979L1027.52 205.894C1028 206.586 1028.66 206.931 1029.5 206.931Z" fill="url(#paint88_linear_122_130)"/>
<path d="M1066.64 -11.2072C1068.07 -11.2072 1069.15 -10.6022 1069.88 -9.39232C1070.63 -8.1957 1071 -6.45395 1071 -4.16707C1071 -1.88019 1070.63 -0.131794 1069.88 1.07812C1069.15 2.28804 1068.07 2.893 1066.64 2.893C1065.23 2.893 1064.15 2.28804 1063.4 1.07812C1062.65 -0.131794 1062.28 -1.88019 1062.28 -4.16707C1062.28 -6.44065 1062.65 -8.1824 1063.4 -9.39232C1064.15 -10.6022 1065.23 -11.2072 1066.64 -11.2072ZM1063.7 -4.16707C1063.7 -2.54498 1063.85 -1.27523 1064.14 -0.357821L1068.58 -9.19288C1068.11 -9.81779 1067.47 -10.1302 1066.64 -10.1302C1065.72 -10.1302 1065 -9.63829 1064.48 -8.6544C1063.96 -7.68381 1063.7 -6.18803 1063.7 -4.16707ZM1066.64 1.7961C1067.57 1.7961 1068.3 1.3108 1068.82 0.340208C1069.34 -0.643681 1069.6 -2.14611 1069.6 -4.16707C1069.6 -5.88223 1069.43 -7.21181 1069.1 -8.15581L1064.66 0.759022C1065.14 1.4504 1065.8 1.7961 1066.64 1.7961Z" fill="url(#paint89_linear_122_130)"/>
<path d="M1067.84 24.4293H1070.78V25.4864H1063.16V24.4293H1066.56V13.221L1063.32 15.1555L1062.76 14.2581L1066.76 11.785H1067.84V24.4293Z" fill="url(#paint90_linear_122_130)"/>
<path d="M1067.84 47.2221H1070.78V48.2792H1063.16V47.2221H1066.56V36.0138L1063.32 37.9483L1062.76 37.0509L1066.76 34.5778H1067.84V47.2221Z" fill="url(#paint91_linear_122_130)"/>
<path d="M1066.64 57.1712C1068.07 57.1712 1069.15 57.7762 1069.88 58.9861C1070.63 60.1827 1071 61.9245 1071 64.2113C1071 66.4982 1070.63 68.2466 1069.88 69.4565C1069.15 70.6664 1068.07 71.2714 1066.64 71.2714C1065.23 71.2714 1064.15 70.6664 1063.4 69.4565C1062.65 68.2466 1062.28 66.4982 1062.28 64.2113C1062.28 61.9378 1062.65 60.196 1063.4 58.9861C1064.15 57.7762 1065.23 57.1712 1066.64 57.1712ZM1063.7 64.2113C1063.7 65.8334 1063.85 67.1032 1064.14 68.0206L1068.58 59.1855C1068.11 58.5606 1067.47 58.2482 1066.64 58.2482C1065.72 58.2482 1065 58.7401 1064.48 59.724C1063.96 60.6946 1063.7 62.1904 1063.7 64.2113ZM1066.64 70.1745C1067.57 70.1745 1068.3 69.6892 1068.82 68.7186C1069.34 67.7347 1069.6 66.2323 1069.6 64.2113C1069.6 62.4962 1069.43 61.1666 1069.1 60.2226L1064.66 69.1374C1065.14 69.8288 1065.8 70.1745 1066.64 70.1745Z" fill="url(#paint92_linear_122_130)"/>
<path d="M1066.64 79.964C1068.07 79.964 1069.15 80.569 1069.88 81.7789C1070.63 82.9755 1071 84.7173 1071 87.0041C1071 89.291 1070.63 91.0394 1069.88 92.2493C1069.15 93.4593 1068.07 94.0642 1066.64 94.0642C1065.23 94.0642 1064.15 93.4593 1063.4 92.2493C1062.65 91.0394 1062.28 89.291 1062.28 87.0041C1062.28 84.7306 1062.65 82.9888 1063.4 81.7789C1064.15 80.569 1065.23 79.964 1066.64 79.964ZM1063.7 87.0041C1063.7 88.6262 1063.85 89.896 1064.14 90.8134L1068.58 81.9783C1068.11 81.3534 1067.47 81.041 1066.64 81.041C1065.72 81.041 1065 81.5329 1064.48 82.5168C1063.96 83.4874 1063.7 84.9832 1063.7 87.0041ZM1066.64 92.9673C1067.57 92.9673 1068.3 92.482 1068.82 91.5114C1069.34 90.5275 1069.6 89.0251 1069.6 87.0041C1069.6 85.289 1069.43 83.9594 1069.1 83.0154L1064.66 91.9302C1065.14 92.6216 1065.8 92.9673 1066.64 92.9673Z" fill="url(#paint93_linear_122_130)"/>
</g>
</g>
<defs>
<filter id="filter0_f_122_130" x="-467.19" y="-720.19" width="2141.38" height="1500.38" filterUnits="userSpaceOnUse" color-interpolation-filters="sRGB">
<feFlood flood-opacity="0" result="BackgroundImageFix"/>
<feBlend mode="normal" in="SourceGraphic" in2="BackgroundImageFix" result="shape"/>
<feGaussianBlur stdDeviation="200.095" result="effect1_foregroundBlur_122_130"/>
</filter>
<linearGradient id="paint0_linear_122_130" x1="143.5" y1="266" x2="143.5" y2="577.381" gradientUnits="userSpaceOnUse">
<stop stop-color="#F7DD43"/>
<stop offset="1" stop-color="#F7DD43" stop-opacity="0"/>
</linearGradient>
<linearGradient id="paint1_linear_122_130" x1="143.5" y1="266" x2="143.5" y2="577.381" gradientUnits="userSpaceOnUse">
<stop stop-color="#F7DD43"/>
<stop offset="1" stop-color="#F7DD43" stop-opacity="0"/>
</linearGradient>
<linearGradient id="paint2_linear_122_130" x1="143.5" y1="266" x2="143.5" y2="577.381" gradientUnits="userSpaceOnUse">
<stop stop-color="#F7DD43"/>
<stop offset="1" stop-color="#F7DD43" stop-opacity="0"/>
</linearGradient>
<linearGradient id="paint3_linear_122_130" x1="143.5" y1="266" x2="143.5" y2="577.381" gradientUnits="userSpaceOnUse">
<stop stop-color="#F7DD43"/>
<stop offset="1" stop-color="#F7DD43" stop-opacity="0"/>
</linearGradient>
<linearGradient id="paint4_linear_122_130" x1="143.5" y1="266" x2="143.5" y2="577.381" gradientUnits="userSpaceOnUse">
<stop stop-color="#F7DD43"/>
<stop offset="1" stop-color="#F7DD43" stop-opacity="0"/>
</linearGradient>
<linearGradient id="paint5_linear_122_130" x1="143.5" y1="266" x2="143.5" y2="577.381" gradientUnits="userSpaceOnUse">
<stop stop-color="#F7DD43"/>
<stop offset="1" stop-color="#F7DD43" stop-opacity="0"/>
</linearGradient>
<linearGradient id="paint6_linear_122_130" x1="143.5" y1="266" x2="143.5" y2="577.381" gradientUnits="userSpaceOnUse">
<stop stop-color="#F7DD43"/>
<stop offset="1" stop-color="#F7DD43" stop-opacity="0"/>
</linearGradient>
<linearGradient id="paint7_linear_122_130" x1="143.5" y1="266" x2="143.5" y2="577.381" gradientUnits="userSpaceOnUse">
<stop stop-color="#F7DD43"/>
<stop offset="1" stop-color="#F7DD43" stop-opacity="0"/>
</linearGradient>
<linearGradient id="paint8_linear_122_130" x1="143.5" y1="266" x2="143.5" y2="577.381" gradientUnits="userSpaceOnUse">
<stop stop-color="#F7DD43"/>
<stop offset="1" stop-color="#F7DD43" stop-opacity="0"/>
</linearGradient>
<linearGradient id="paint9_linear_122_130" x1="143.5" y1="266" x2="143.5" y2="577.381" gradientUnits="userSpaceOnUse">
<stop stop-color="#F7DD43"/>
<stop offset="1" stop-color="#F7DD43" stop-opacity="0"/>
</linearGradient>
<linearGradient id="paint10_linear_122_130" x1="143.5" y1="266" x2="143.5" y2="577.381" gradientUnits="userSpaceOnUse">
<stop stop-color="#F7DD43"/>
<stop offset="1" stop-color="#F7DD43" stop-opacity="0"/>
</linearGradient>
<linearGradient id="paint11_linear_122_130" x1="143.5" y1="266" x2="143.5" y2="577.381" gradientUnits="userSpaceOnUse">
<stop stop-color="#F7DD43"/>
<stop offset="1" stop-color="#F7DD43" stop-opacity="0"/>
</linearGradient>
<linearGradient id="paint12_linear_122_130" x1="143.5" y1="266" x2="143.5" y2="577.381" gradientUnits="userSpaceOnUse">
<stop stop-color="#F7DD43"/>
<stop offset="1" stop-color="#F7DD43" stop-opacity="0"/>
</linearGradient>
<linearGradient id="paint13_linear_122_130" x1="143.5" y1="266" x2="143.5" y2="577.381" gradientUnits="userSpaceOnUse">
<stop stop-color="#F7DD43"/>
<stop offset="1" stop-color="#F7DD43" stop-opacity="0"/>
</linearGradient>
<linearGradient id="paint14_linear_122_130" x1="143.5" y1="266" x2="143.5" y2="577.381" gradientUnits="userSpaceOnUse">
<stop stop-color="#F7DD43"/>
<stop offset="1" stop-color="#F7DD43" stop-opacity="0"/>
</linearGradient>
<linearGradient id="paint15_linear_122_130" x1="143.5" y1="266" x2="143.5" y2="577.381" gradientUnits="userSpaceOnUse">
<stop stop-color="#F7DD43"/>
<stop offset="1" stop-color="#F7DD43" stop-opacity="0"/>
</linearGradient>
<linearGradient id="paint16_linear_122_130" x1="143.5" y1="266" x2="143.5" y2="577.381" gradientUnits="userSpaceOnUse">
<stop stop-color="#F7DD43"/>
<stop offset="1" stop-color="#F7DD43" stop-opacity="0"/>
</linearGradient>
<linearGradient id="paint17_linear_122_130" x1="143.5" y1="266" x2="143.5" y2="577.381" gradientUnits="userSpaceOnUse">
<stop stop-color="#F7DD43"/>
<stop offset="1" stop-color="#F7DD43" stop-opacity="0"/>
</linearGradient>
<linearGradient id="paint18_linear_122_130" x1="143.5" y1="266" x2="143.5" y2="577.381" gradientUnits="userSpaceOnUse">
<stop stop-color="#F7DD43"/>
<stop offset="1" stop-color="#F7DD43" stop-opacity="0"/>
</linearGradient>
<linearGradient id="paint19_linear_122_130" x1="143.5" y1="266" x2="143.5" y2="577.381" gradientUnits="userSpaceOnUse">
<stop stop-color="#F7DD43"/>
<stop offset="1" stop-color="#F7DD43" stop-opacity="0"/>
</linearGradient>
<linearGradient id="paint20_linear_122_130" x1="143.5" y1="266" x2="143.5" y2="577.381" gradientUnits="userSpaceOnUse">
<stop stop-color="#F7DD43"/>
<stop offset="1" stop-color="#F7DD43" stop-opacity="0"/>
</linearGradient>
<linearGradient id="paint21_linear_122_130" x1="143.5" y1="266" x2="143.5" y2="577.381" gradientUnits="userSpaceOnUse">
<stop stop-color="#F7DD43"/>
<stop offset="1" stop-color="#F7DD43" stop-opacity="0"/>
</linearGradient>
<linearGradient id="paint22_linear_122_130" x1="143.5" y1="266" x2="143.5" y2="577.381" gradientUnits="userSpaceOnUse">
<stop stop-color="#F7DD43"/>
<stop offset="1" stop-color="#F7DD43" stop-opacity="0"/>
</linearGradient>
<linearGradient id="paint23_linear_122_130" x1="143.5" y1="266" x2="143.5" y2="577.381" gradientUnits="userSpaceOnUse">
<stop stop-color="#F7DD43"/>
<stop offset="1" stop-color="#F7DD43" stop-opacity="0"/>
</linearGradient>
<linearGradient id="paint24_linear_122_130" x1="143.5" y1="266" x2="143.5" y2="577.381" gradientUnits="userSpaceOnUse">
<stop stop-color="#F7DD43"/>
<stop offset="1" stop-color="#F7DD43" stop-opacity="0"/>
</linearGradient>
<linearGradient id="paint25_linear_122_130" x1="143.5" y1="266" x2="143.5" y2="577.381" gradientUnits="userSpaceOnUse">
<stop stop-color="#F7DD43"/>
<stop offset="1" stop-color="#F7DD43" stop-opacity="0"/>
</linearGradient>
<linearGradient id="paint26_linear_122_130" x1="143.5" y1="266" x2="143.5" y2="577.381" gradientUnits="userSpaceOnUse">
<stop stop-color="#F7DD43"/>
<stop offset="1" stop-color="#F7DD43" stop-opacity="0"/>
</linearGradient>
<linearGradient id="paint27_linear_122_130" x1="143.5" y1="266" x2="143.5" y2="577.381" gradientUnits="userSpaceOnUse">
<stop stop-color="#F7DD43"/>
<stop offset="1" stop-color="#F7DD43" stop-opacity="0"/>
</linearGradient>
<linearGradient id="paint28_linear_122_130" x1="143.5" y1="266" x2="143.5" y2="577.381" gradientUnits="userSpaceOnUse">
<stop stop-color="#F7DD43"/>
<stop offset="1" stop-color="#F7DD43" stop-opacity="0"/>
</linearGradient>
<linearGradient id="paint29_linear_122_130" x1="143.5" y1="266" x2="143.5" y2="577.381" gradientUnits="userSpaceOnUse">
<stop stop-color="#F7DD43"/>
<stop offset="1" stop-color="#F7DD43" stop-opacity="0"/>
</linearGradient>
<linearGradient id="paint30_linear_122_130" x1="143.5" y1="266" x2="143.5" y2="577.381" gradientUnits="userSpaceOnUse">
<stop stop-color="#F7DD43"/>
<stop offset="1" stop-color="#F7DD43" stop-opacity="0"/>
</linearGradient>
<linearGradient id="paint31_linear_122_130" x1="143.5" y1="266" x2="143.5" y2="577.381" gradientUnits="userSpaceOnUse">
<stop stop-color="#F7DD43"/>
<stop offset="1" stop-color="#F7DD43" stop-opacity="0"/>
</linearGradient>
<linearGradient id="paint32_linear_122_130" x1="143.5" y1="266" x2="143.5" y2="577.381" gradientUnits="userSpaceOnUse">
<stop stop-color="#F7DD43"/>
<stop offset="1" stop-color="#F7DD43" stop-opacity="0"/>
</linearGradient>
<linearGradient id="paint33_linear_122_130" x1="143.5" y1="266" x2="143.5" y2="577.381" gradientUnits="userSpaceOnUse">
<stop stop-color="#F7DD43"/>
<stop offset="1" stop-color="#F7DD43" stop-opacity="0"/>
</linearGradient>
<linearGradient id="paint34_linear_122_130" x1="143.5" y1="266" x2="143.5" y2="577.381" gradientUnits="userSpaceOnUse">
<stop stop-color="#F7DD43"/>
<stop offset="1" stop-color="#F7DD43" stop-opacity="0"/>
</linearGradient>
<linearGradient id="paint35_linear_122_130" x1="143.5" y1="266" x2="143.5" y2="577.381" gradientUnits="userSpaceOnUse">
<stop stop-color="#F7DD43"/>
<stop offset="1" stop-color="#F7DD43" stop-opacity="0"/>
</linearGradient>
<linearGradient id="paint36_linear_122_130" x1="143.5" y1="266" x2="143.5" y2="577.381" gradientUnits="userSpaceOnUse">
<stop stop-color="#F7DD43"/>
<stop offset="1" stop-color="#F7DD43" stop-opacity="0"/>
</linearGradient>
<linearGradient id="paint37_linear_122_130" x1="143.5" y1="266" x2="143.5" y2="577.381" gradientUnits="userSpaceOnUse">
<stop stop-color="#F7DD43"/>
<stop offset="1" stop-color="#F7DD43" stop-opacity="0"/>
</linearGradient>
<linearGradient id="paint38_linear_122_130" x1="143.5" y1="266" x2="143.5" y2="577.381" gradientUnits="userSpaceOnUse">
<stop stop-color="#F7DD43"/>
<stop offset="1" stop-color="#F7DD43" stop-opacity="0"/>
</linearGradient>
<linearGradient id="paint39_linear_122_130" x1="143.5" y1="266" x2="143.5" y2="577.381" gradientUnits="userSpaceOnUse">
<stop stop-color="#F7DD43"/>
<stop offset="1" stop-color="#F7DD43" stop-opacity="0"/>
</linearGradient>
<linearGradient id="paint40_linear_122_130" x1="143.5" y1="266" x2="143.5" y2="577.381" gradientUnits="userSpaceOnUse">
<stop stop-color="#F7DD43"/>
<stop offset="1" stop-color="#F7DD43" stop-opacity="0"/>
</linearGradient>
<linearGradient id="paint41_linear_122_130" x1="143.5" y1="266" x2="143.5" y2="577.381" gradientUnits="userSpaceOnUse">
<stop stop-color="#F7DD43"/>
<stop offset="1" stop-color="#F7DD43" stop-opacity="0"/>
</linearGradient>
<linearGradient id="paint42_linear_122_130" x1="143.5" y1="266" x2="143.5" y2="577.381" gradientUnits="userSpaceOnUse">
<stop stop-color="#F7DD43"/>
<stop offset="1" stop-color="#F7DD43" stop-opacity="0"/>
</linearGradient>
<linearGradient id="paint43_linear_122_130" x1="143.5" y1="266" x2="143.5" y2="577.381" gradientUnits="userSpaceOnUse">
<stop stop-color="#F7DD43"/>
<stop offset="1" stop-color="#F7DD43" stop-opacity="0"/>
</linearGradient>
<linearGradient id="paint44_linear_122_130" x1="143.5" y1="266" x2="143.5" y2="577.381" gradientUnits="userSpaceOnUse">
<stop stop-color="#F7DD43"/>
<stop offset="1" stop-color="#F7DD43" stop-opacity="0"/>
</linearGradient>
<linearGradient id="paint45_linear_122_130" x1="143.5" y1="266" x2="143.5" y2="577.381" gradientUnits="userSpaceOnUse">
<stop stop-color="#F7DD43"/>
<stop offset="1" stop-color="#F7DD43" stop-opacity="0"/>
</linearGradient>
<linearGradient id="paint46_linear_122_130" x1="143.5" y1="266" x2="143.5" y2="577.381" gradientUnits="userSpaceOnUse">
<stop stop-color="#F7DD43"/>
<stop offset="1" stop-color="#F7DD43" stop-opacity="0"/>
</linearGradient>
<linearGradient id="paint47_linear_122_130" x1="1029.5" y1="-34" x2="1029.5" y2="264.818" gradientUnits="userSpaceOnUse">
<stop stop-color="#F7DD43"/>
<stop offset="1" stop-color="#F7DD43" stop-opacity="0"/>
</linearGradient>
<linearGradient id="paint48_linear_122_130" x1="1029.5" y1="-34" x2="1029.5" y2="264.818" gradientUnits="userSpaceOnUse">
<stop stop-color="#F7DD43"/>
<stop offset="1" stop-color="#F7DD43" stop-opacity="0"/>
</linearGradient>
<linearGradient id="paint49_linear_122_130" x1="1029.5" y1="-34" x2="1029.5" y2="264.818" gradientUnits="userSpaceOnUse">
<stop stop-color="#F7DD43"/>
<stop offset="1" stop-color="#F7DD43" stop-opacity="0"/>
</linearGradient>
<linearGradient id="paint50_linear_122_130" x1="1029.5" y1="-34" x2="1029.5" y2="264.818" gradientUnits="userSpaceOnUse">
<stop stop-color="#F7DD43"/>
<stop offset="1" stop-color="#F7DD43" stop-opacity="0"/>
</linearGradient>
<linearGradient id="paint51_linear_122_130" x1="1029.5" y1="-34" x2="1029.5" y2="264.818" gradientUnits="userSpaceOnUse">
<stop stop-color="#F7DD43"/>
<stop offset="1" stop-color="#F7DD43" stop-opacity="0"/>
</linearGradient>
<linearGradient id="paint52_linear_122_130" x1="1029.5" y1="-34" x2="1029.5" y2="264.818" gradientUnits="userSpaceOnUse">
<stop stop-color="#F7DD43"/>
<stop offset="1" stop-color="#F7DD43" stop-opacity="0"/>
</linearGradient>
<linearGradient id="paint53_linear_122_130" x1="1029.5" y1="-34" x2="1029.5" y2="264.818" gradientUnits="userSpaceOnUse">
<stop stop-color="#F7DD43"/>
<stop offset="1" stop-color="#F7DD43" stop-opacity="0"/>
</linearGradient>
<linearGradient id="paint54_linear_122_130" x1="1029.5" y1="-34" x2="1029.5" y2="264.818" gradientUnits="userSpaceOnUse">
<stop stop-color="#F7DD43"/>
<stop offset="1" stop-color="#F7DD43" stop-opacity="0"/>
</linearGradient>
<linearGradient id="paint55_linear_122_130" x1="1029.5" y1="-34" x2="1029.5" y2="264.818" gradientUnits="userSpaceOnUse">
<stop stop-color="#F7DD43"/>
<stop offset="1" stop-color="#F7DD43" stop-opacity="0"/>
</linearGradient>
<linearGradient id="paint56_linear_122_130" x1="1029.5" y1="-34" x2="1029.5" y2="264.818" gradientUnits="userSpaceOnUse">
<stop stop-color="#F7DD43"/>
<stop offset="1" stop-color="#F7DD43" stop-opacity="0"/>
</linearGradient>
<linearGradient id="paint57_linear_122_130" x1="1029.5" y1="-34" x2="1029.5" y2="264.818" gradientUnits="userSpaceOnUse">
<stop stop-color="#F7DD43"/>
<stop offset="1" stop-color="#F7DD43" stop-opacity="0"/>
</linearGradient>
<linearGradient id="paint58_linear_122_130" x1="1029.5" y1="-34" x2="1029.5" y2="264.818" gradientUnits="userSpaceOnUse">
<stop stop-color="#F7DD43"/>
<stop offset="1" stop-color="#F7DD43" stop-opacity="0"/>
</linearGradient>
<linearGradient id="paint59_linear_122_130" x1="1029.5" y1="-34" x2="1029.5" y2="264.818" gradientUnits="userSpaceOnUse">
<stop stop-color="#F7DD43"/>
<stop offset="1" stop-color="#F7DD43" stop-opacity="0"/>
</linearGradient>
<linearGradient id="paint60_linear_122_130" x1="1029.5" y1="-34" x2="1029.5" y2="264.818" gradientUnits="userSpaceOnUse">
<stop stop-color="#F7DD43"/>
<stop offset="1" stop-color="#F7DD43" stop-opacity="0"/>
</linearGradient>
<linearGradient id="paint61_linear_122_130" x1="1029.5" y1="-34" x2="1029.5" y2="264.818" gradientUnits="userSpaceOnUse">
<stop stop-color="#F7DD43"/>
<stop offset="1" stop-color="#F7DD43" stop-opacity="0"/>
</linearGradient>
<linearGradient id="paint62_linear_122_130" x1="1029.5" y1="-34" x2="1029.5" y2="264.818" gradientUnits="userSpaceOnUse">
<stop stop-color="#F7DD43"/>
<stop offset="1" stop-color="#F7DD43" stop-opacity="0"/>
</linearGradient>
<linearGradient id="paint63_linear_122_130" x1="1029.5" y1="-34" x2="1029.5" y2="264.818" gradientUnits="userSpaceOnUse">
<stop stop-color="#F7DD43"/>
<stop offset="1" stop-color="#F7DD43" stop-opacity="0"/>
</linearGradient>
<linearGradient id="paint64_linear_122_130" x1="1029.5" y1="-34" x2="1029.5" y2="264.818" gradientUnits="userSpaceOnUse">
<stop stop-color="#F7DD43"/>
<stop offset="1" stop-color="#F7DD43" stop-opacity="0"/>
</linearGradient>
<linearGradient id="paint65_linear_122_130" x1="1029.5" y1="-34" x2="1029.5" y2="264.818" gradientUnits="userSpaceOnUse">
<stop stop-color="#F7DD43"/>
<stop offset="1" stop-color="#F7DD43" stop-opacity="0"/>
</linearGradient>
<linearGradient id="paint66_linear_122_130" x1="1029.5" y1="-34" x2="1029.5" y2="264.818" gradientUnits="userSpaceOnUse">
<stop stop-color="#F7DD43"/>
<stop offset="1" stop-color="#F7DD43" stop-opacity="0"/>
</linearGradient>
<linearGradient id="paint67_linear_122_130" x1="1029.5" y1="-34" x2="1029.5" y2="264.818" gradientUnits="userSpaceOnUse">
<stop stop-color="#F7DD43"/>
<stop offset="1" stop-color="#F7DD43" stop-opacity="0"/>
</linearGradient>
<linearGradient id="paint68_linear_122_130" x1="1029.5" y1="-34" x2="1029.5" y2="264.818" gradientUnits="userSpaceOnUse">
<stop stop-color="#F7DD43"/>
<stop offset="1" stop-color="#F7DD43" stop-opacity="0"/>
</linearGradient>
<linearGradient id="paint69_linear_122_130" x1="1029.5" y1="-34" x2="1029.5" y2="264.818" gradientUnits="userSpaceOnUse">
<stop stop-color="#F7DD43"/>
<stop offset="1" stop-color="#F7DD43" stop-opacity="0"/>
</linearGradient>
<linearGradient id="paint70_linear_122_130" x1="1029.5" y1="-34" x2="1029.5" y2="264.818" gradientUnits="userSpaceOnUse">
<stop stop-color="#F7DD43"/>
<stop offset="1" stop-color="#F7DD43" stop-opacity="0"/>
</linearGradient>
<linearGradient id="paint71_linear_122_130" x1="1029.5" y1="-34" x2="1029.5" y2="264.818" gradientUnits="userSpaceOnUse">
<stop stop-color="#F7DD43"/>
<stop offset="1" stop-color="#F7DD43" stop-opacity="0"/>
</linearGradient>
<linearGradient id="paint72_linear_122_130" x1="1029.5" y1="-34" x2="1029.5" y2="264.818" gradientUnits="userSpaceOnUse">
<stop stop-color="#F7DD43"/>
<stop offset="1" stop-color="#F7DD43" stop-opacity="0"/>
</linearGradient>
<linearGradient id="paint73_linear_122_130" x1="1029.5" y1="-34" x2="1029.5" y2="264.818" gradientUnits="userSpaceOnUse">
<stop stop-color="#F7DD43"/>
<stop offset="1" stop-color="#F7DD43" stop-opacity="0"/>
</linearGradient>
<linearGradient id="paint74_linear_122_130" x1="1029.5" y1="-34" x2="1029.5" y2="264.818" gradientUnits="userSpaceOnUse">
<stop stop-color="#F7DD43"/>
<stop offset="1" stop-color="#F7DD43" stop-opacity="0"/>
</linearGradient>
<linearGradient id="paint75_linear_122_130" x1="1029.5" y1="-34" x2="1029.5" y2="264.818" gradientUnits="userSpaceOnUse">
<stop stop-color="#F7DD43"/>
<stop offset="1" stop-color="#F7DD43" stop-opacity="0"/>
</linearGradient>
<linearGradient id="paint76_linear_122_130" x1="1029.5" y1="-34" x2="1029.5" y2="264.818" gradientUnits="userSpaceOnUse">
<stop stop-color="#F7DD43"/>
<stop offset="1" stop-color="#F7DD43" stop-opacity="0"/>
</linearGradient>
<linearGradient id="paint77_linear_122_130" x1="1029.5" y1="-34" x2="1029.5" y2="264.818" gradientUnits="userSpaceOnUse">
<stop stop-color="#F7DD43"/>
<stop offset="1" stop-color="#F7DD43" stop-opacity="0"/>
</linearGradient>
<linearGradient id="paint78_linear_122_130" x1="1029.5" y1="-34" x2="1029.5" y2="264.818" gradientUnits="userSpaceOnUse">
<stop stop-color="#F7DD43"/>
<stop offset="1" stop-color="#F7DD43" stop-opacity="0"/>
</linearGradient>
<linearGradient id="paint79_linear_122_130" x1="1029.5" y1="-34" x2="1029.5" y2="264.818" gradientUnits="userSpaceOnUse">
<stop stop-color="#F7DD43"/>
<stop offset="1" stop-color="#F7DD43" stop-opacity="0"/>
</linearGradient>
<linearGradient id="paint80_linear_122_130" x1="1029.5" y1="-34" x2="1029.5" y2="264.818" gradientUnits="userSpaceOnUse">
<stop stop-color="#F7DD43"/>
<stop offset="1" stop-color="#F7DD43" stop-opacity="0"/>
</linearGradient>
<linearGradient id="paint81_linear_122_130" x1="1029.5" y1="-34" x2="1029.5" y2="264.818" gradientUnits="userSpaceOnUse">
<stop stop-color="#F7DD43"/>
<stop offset="1" stop-color="#F7DD43" stop-opacity="0"/>
</linearGradient>
<linearGradient id="paint82_linear_122_130" x1="1029.5" y1="-34" x2="1029.5" y2="264.818" gradientUnits="userSpaceOnUse">
<stop stop-color="#F7DD43"/>
<stop offset="1" stop-color="#F7DD43" stop-opacity="0"/>
</linearGradient>
<linearGradient id="paint83_linear_122_130" x1="1029.5" y1="-34" x2="1029.5" y2="264.818" gradientUnits="userSpaceOnUse">
<stop stop-color="#F7DD43"/>
<stop offset="1" stop-color="#F7DD43" stop-opacity="0"/>
</linearGradient>
<linearGradient id="paint84_linear_122_130" x1="1029.5" y1="-34" x2="1029.5" y2="264.818" gradientUnits="userSpaceOnUse">
<stop stop-color="#F7DD43"/>
<stop offset="1" stop-color="#F7DD43" stop-opacity="0"/>
</linearGradient>
<linearGradient id="paint85_linear_122_130" x1="1029.5" y1="-34" x2="1029.5" y2="264.818" gradientUnits="userSpaceOnUse">
<stop stop-color="#F7DD43"/>
<stop offset="1" stop-color="#F7DD43" stop-opacity="0"/>
</linearGradient>
<linearGradient id="paint86_linear_122_130" x1="1029.5" y1="-34" x2="1029.5" y2="264.818" gradientUnits="userSpaceOnUse">
<stop stop-color="#F7DD43"/>
<stop offset="1" stop-color="#F7DD43" stop-opacity="0"/>
</linearGradient>
<linearGradient id="paint87_linear_122_130" x1="1029.5" y1="-34" x2="1029.5" y2="264.818" gradientUnits="userSpaceOnUse">
<stop stop-color="#F7DD43"/>
<stop offset="1" stop-color="#F7DD43" stop-opacity="0"/>
</linearGradient>
<linearGradient id="paint88_linear_122_130" x1="1029.5" y1="-34" x2="1029.5" y2="264.818" gradientUnits="userSpaceOnUse">
<stop stop-color="#F7DD43"/>
<stop offset="1" stop-color="#F7DD43" stop-opacity="0"/>
</linearGradient>
<linearGradient id="paint89_linear_122_130" x1="1029.5" y1="-34" x2="1029.5" y2="264.818" gradientUnits="userSpaceOnUse">
<stop stop-color="#F7DD43"/>
<stop offset="1" stop-color="#F7DD43" stop-opacity="0"/>
</linearGradient>
<linearGradient id="paint90_linear_122_130" x1="1029.5" y1="-34" x2="1029.5" y2="264.818" gradientUnits="userSpaceOnUse">
<stop stop-color="#F7DD43"/>
<stop offset="1" stop-color="#F7DD43" stop-opacity="0"/>
</linearGradient>
<linearGradient id="paint91_linear_122_130" x1="1029.5" y1="-34" x2="1029.5" y2="264.818" gradientUnits="userSpaceOnUse">
<stop stop-color="#F7DD43"/>
<stop offset="1" stop-color="#F7DD43" stop-opacity="0"/>
</linearGradient>
<linearGradient id="paint92_linear_122_130" x1="1029.5" y1="-34" x2="1029.5" y2="264.818" gradientUnits="userSpaceOnUse">
<stop stop-color="#F7DD43"/>
<stop offset="1" stop-color="#F7DD43" stop-opacity="0"/>
</linearGradient>
<linearGradient id="paint93_linear_122_130" x1="1029.5" y1="-34" x2="1029.5" y2="264.818" gradientUnits="userSpaceOnUse">
<stop stop-color="#F7DD43"/>
<stop offset="1" stop-color="#F7DD43" stop-opacity="0"/>
</linearGradient>
<clipPath id="clip0_122_130">
<rect width="1024" height="753" fill="white"/>
</clipPath>
</defs>
</svg>
